<?xml version="1.0" encoding="UTF-8"?>
<!DOCTYPE svg PUBLIC "-//W3C//DTD SVG 1.1//EN" "http://www.w3.org/Graphics/SVG/1.1/DTD/svg11.dtd">
<svg xmlns="http://www.w3.org/2000/svg" version="1.1" viewBox="0 0 23 23" stroke="none">
	<rect width="100%" height="100%" fill="#FFFFFF"/>
	<path d="M1,1h1v1h-1z M2,1h1v1h-1z M3,1h1v1h-1z M4,1h1v1h-1z M5,1h1v1h-1z M6,1h1v1h-1z M7,1h1v1h-1z M13,1h1v1h-1z M15,1h1v1h-1z M16,1h1v1h-1z M17,1h1v1h-1z M18,1h1v1h-1z M19,1h1v1h-1z M20,1h1v1h-1z M21,1h1v1h-1z M1,2h1v1h-1z M7,2h1v1h-1z M10,2h1v1h-1z M11,2h1v1h-1z M15,2h1v1h-1z M21,2h1v1h-1z M1,3h1v1h-1z M3,3h1v1h-1z M4,3h1v1h-1z M5,3h1v1h-1z M7,3h1v1h-1z M11,3h1v1h-1z M15,3h1v1h-1z M17,3h1v1h-1z M18,3h1v1h-1z M19,3h1v1h-1z M21,3h1v1h-1z M1,4h1v1h-1z M3,4h1v1h-1z M4,4h1v1h-1z M5,4h1v1h-1z M7,4h1v1h-1z M10,4h1v1h-1z M13,4h1v1h-1z M15,4h1v1h-1z M17,4h1v1h-1z M18,4h1v1h-1z M19,4h1v1h-1z M21,4h1v1h-1z M1,5h1v1h-1z M3,5h1v1h-1z M4,5h1v1h-1z M5,5h1v1h-1z M7,5h1v1h-1z M9,5h1v1h-1z M12,5h1v1h-1z M15,5h1v1h-1z M17,5h1v1h-1z M18,5h1v1h-1z M19,5h1v1h-1z M21,5h1v1h-1z M1,6h1v1h-1z M7,6h1v1h-1z M10,6h1v1h-1z M15,6h1v1h-1z M21,6h1v1h-1z M1,7h1v1h-1z M2,7h1v1h-1z M3,7h1v1h-1z M4,7h1v1h-1z M5,7h1v1h-1z M6,7h1v1h-1z M7,7h1v1h-1z M9,7h1v1h-1z M11,7h1v1h-1z M13,7h1v1h-1z M15,7h1v1h-1z M16,7h1v1h-1z M17,7h1v1h-1z M18,7h1v1h-1z M19,7h1v1h-1z M20,7h1v1h-1z M21,7h1v1h-1z M9,8h1v1h-1z M10,8h1v1h-1z M12,8h1v1h-1z M3,9h1v1h-1z M4,9h1v1h-1z M7,9h1v1h-1z M8,9h1v1h-1z M9,9h1v1h-1z M12,9h1v1h-1z M14,9h1v1h-1z M15,9h1v1h-1z M17,9h1v1h-1z M1,10h1v1h-1z M2,10h1v1h-1z M3,10h1v1h-1z M5,10h1v1h-1z M6,10h1v1h-1z M8,10h1v1h-1z M11,10h1v1h-1z M16,10h1v1h-1z M1,11h1v1h-1z M2,11h1v1h-1z M3,11h1v1h-1z M4,11h1v1h-1z M5,11h1v1h-1z M6,11h1v1h-1z M7,11h1v1h-1z M8,11h1v1h-1z M9,11h1v1h-1z M11,11h1v1h-1z M12,11h1v1h-1z M13,11h1v1h-1z M14,11h1v1h-1z M16,11h1v1h-1z M17,11h1v1h-1z M18,11h1v1h-1z M19,11h1v1h-1z M21,11h1v1h-1z M1,12h1v1h-1z M2,12h1v1h-1z M8,12h1v1h-1z M9,12h1v1h-1z M10,12h1v1h-1z M12,12h1v1h-1z M13,12h1v1h-1z M18,12h1v1h-1z M3,13h1v1h-1z M5,13h1v1h-1z M6,13h1v1h-1z M7,13h1v1h-1z M8,13h1v1h-1z M9,13h1v1h-1z M11,13h1v1h-1z M12,13h1v1h-1z M14,13h1v1h-1z M15,13h1v1h-1z M17,13h1v1h-1z M21,13h1v1h-1z M9,14h1v1h-1z M10,14h1v1h-1z M15,14h1v1h-1z M16,14h1v1h-1z M18,14h1v1h-1z M19,14h1v1h-1z M1,15h1v1h-1z M2,15h1v1h-1z M3,15h1v1h-1z M4,15h1v1h-1z M5,15h1v1h-1z M6,15h1v1h-1z M7,15h1v1h-1z M9,15h1v1h-1z M10,15h1v1h-1z M11,15h1v1h-1z M12,15h1v1h-1z M15,15h1v1h-1z M17,15h1v1h-1z M19,15h1v1h-1z M20,15h1v1h-1z M1,16h1v1h-1z M7,16h1v1h-1z M10,16h1v1h-1z M11,16h1v1h-1z M12,16h1v1h-1z M13,16h1v1h-1z M14,16h1v1h-1z M19,16h1v1h-1z M21,16h1v1h-1z M1,17h1v1h-1z M3,17h1v1h-1z M4,17h1v1h-1z M5,17h1v1h-1z M7,17h1v1h-1z M12,17h1v1h-1z M13,17h1v1h-1z M14,17h1v1h-1z M21,17h1v1h-1z M1,18h1v1h-1z M3,18h1v1h-1z M4,18h1v1h-1z M5,18h1v1h-1z M7,18h1v1h-1z M9,18h1v1h-1z M10,18h1v1h-1z M11,18h1v1h-1z M12,18h1v1h-1z M14,18h1v1h-1z M17,18h1v1h-1z M20,18h1v1h-1z M1,19h1v1h-1z M3,19h1v1h-1z M4,19h1v1h-1z M5,19h1v1h-1z M7,19h1v1h-1z M9,19h1v1h-1z M14,19h1v1h-1z M17,19h1v1h-1z M19,19h1v1h-1z M1,20h1v1h-1z M7,20h1v1h-1z M11,20h1v1h-1z M12,20h1v1h-1z M13,20h1v1h-1z M15,20h1v1h-1z M17,20h1v1h-1z M18,20h1v1h-1z M20,20h1v1h-1z M21,20h1v1h-1z M1,21h1v1h-1z M2,21h1v1h-1z M3,21h1v1h-1z M4,21h1v1h-1z M5,21h1v1h-1z M6,21h1v1h-1z M7,21h1v1h-1z M10,21h1v1h-1z M12,21h1v1h-1z M14,21h1v1h-1z M16,21h1v1h-1z M20,21h1v1h-1z" fill="#000000"/>
</svg>
